<svg width="64" height="32" viewBox="0 0 64 32" fill="none" xmlns="http://www.w3.org/2000/svg">
<path d="M31.6474 -0.00100034C24.653 0.439559 17.6885 2.87474 10.704 7.33358C7.23432 9.54606 3.6296 12.417 0.919811 15.1232L0.00488281 16.0382L0.504844 16.5611C1.20479 17.2921 3.41962 19.3158 4.69952 20.4051C11.929 26.539 19.5234 30.3443 26.9228 31.5353C29.0376 31.8742 30.2225 31.971 32.4473 31.971C34.3622 31.9758 35.0321 31.9371 36.672 31.7338C41.7016 31.1092 46.5962 29.4003 51.4709 26.5633C55.8505 24.0167 60.3052 20.3325 63.6149 16.5175L64.0049 16.0673L63.9099 15.9608C63.8549 15.9027 63.5349 15.5396 63.1899 15.1523C57.6354 8.86343 51.3259 4.3126 44.9714 1.99362C42.0916 0.947896 39.4168 0.347574 36.347 0.066778C35.3721 -0.0203656 32.6123 -0.059096 31.6474 -0.00100034ZM33.7522 2.80696C36.562 3.07807 39.2318 4.13832 41.4216 5.84246C42.9515 7.03342 44.2264 8.57295 45.0914 10.2771C45.5463 11.1679 45.7763 11.7489 46.0263 12.63C46.7062 15.0313 46.6412 17.631 45.8413 19.9936C45.4363 21.1846 44.9464 22.1625 44.2214 23.2131C43.6765 24.0022 43.2565 24.4912 42.4766 25.2464C41.3167 26.3696 40.2267 27.12 38.7219 27.8365C37.322 28.5046 35.9721 28.9113 34.3472 29.1485C33.3673 29.2937 31.4474 29.3083 30.4725 29.1727C27.0728 28.7176 24.243 27.3427 21.9482 25.0479C19.8383 22.9323 18.5934 20.3857 18.2185 17.4277C18.1185 16.624 18.1435 14.9247 18.2735 14.1356C19.0684 9.15391 22.6681 5.08721 27.7227 3.46053C28.8126 3.11196 29.7376 2.92315 30.9975 2.79243C31.3974 2.74886 33.2723 2.76339 33.7522 2.80696Z" fill="white"/>
<path d="M31.6538 6.05606C29.7789 6.20614 27.944 6.90329 26.4792 8.01195C26.0442 8.34115 25.2943 9.06251 24.9393 9.49339C24.3893 10.1518 23.7994 11.1733 23.5094 11.9721C23.1144 13.0614 22.9794 13.9183 23.0194 15.1529C23.0544 16.3245 23.1994 17.0168 23.6144 18.0335C24.9993 21.4369 28.529 23.7171 32.4137 23.722C34.5835 23.722 36.7284 23.0152 38.4282 21.7274C38.8282 21.4272 39.6381 20.6332 39.9781 20.212C40.888 19.0889 41.513 17.7333 41.773 16.3196L41.803 16.155L41.593 16.3487C40.883 16.978 39.9981 17.4331 39.0432 17.6558C38.7632 17.7236 38.4732 17.743 37.8033 17.743C37.0083 17.743 36.8833 17.7284 36.4284 17.6074C34.5235 17.1039 33.0586 15.6951 32.5937 13.9135C32.4337 13.3083 32.4337 12.1174 32.5937 11.5606C32.8487 10.665 33.3136 9.87585 33.9636 9.24648C34.4135 8.81076 34.8185 8.52997 35.3885 8.25885C36.0884 7.9248 36.6934 7.76988 37.5183 7.71179L37.9633 7.68274L37.6233 7.46972C35.8884 6.40947 33.6986 5.88661 31.6538 6.05606Z" fill="white"/>
</svg>
